<?xml version="1.0" encoding="utf-8"?>
<!-- Generator: Adobe Illustrator 19.1.0, SVG Export Plug-In . SVG Version: 6.00 Build 0)  -->
<svg version="1.1" id="Layer_1" xmlns="http://www.w3.org/2000/svg" xmlns:xlink="http://www.w3.org/1999/xlink" x="0px" y="0px"
	 viewBox="0 0 3000 400" style="enable-background:new 0 0 3000 400;" xml:space="preserve">
<style type="text/css">
	.st0{fill:#FFFFFF;}
	.st1{fill:none;stroke:#000000;stroke-miterlimit:10;}
	.st2{opacity:0.5;}
</style>
<rect x="-51" y="-113" class="st0" width="3133.5" height="639.1"/>
<g>
	<path class="st1" d="M-51.5-85.9"/>
	<path class="st1" d="M-51.5,508.1"/>
	<line class="st1" x1="3032.5" y1="-85.9" x2="3032.5" y2="508.1"/>
	<path class="st1" d="M3033,408.6"/>
	<path class="st1" d="M-51,408.6"/>
	<path class="st1" d="M3033,309.6"/>
	<path class="st1" d="M-51,309.6"/>
	<path class="st1" d="M3033,210.6"/>
	<path class="st1" d="M-51,210.6"/>
	<path class="st1" d="M3033,111.6"/>
	<path class="st1" d="M-51,111.6"/>
	<path class="st1" d="M3033,12.6"/>
	<path class="st1" d="M-51,12.6"/>
	<line class="st1" x1="2998.5" y1="-85.9" x2="2998.5" y2="508.1"/>
	<line class="st1" x1="2964.5" y1="-85.9" x2="2964.5" y2="508.1"/>
	<line class="st1" x1="2930.5" y1="-85.9" x2="2930.5" y2="508.1"/>
	<line class="st1" x1="2895.5" y1="-85.9" x2="2895.5" y2="508.1"/>
	<line class="st1" x1="2861.5" y1="-85.9" x2="2861.5" y2="508.1"/>
	<line class="st1" x1="2827.5" y1="-85.9" x2="2827.5" y2="508.1"/>
	<line class="st1" x1="2793.5" y1="-85.9" x2="2793.5" y2="508.1"/>
	<line class="st1" x1="2758.5" y1="-85.9" x2="2758.5" y2="508.1"/>
	<line class="st1" x1="2724.5" y1="-85.9" x2="2724.5" y2="508.1"/>
	<line class="st1" x1="2690.5" y1="-85.9" x2="2690.5" y2="508.1"/>
	<line class="st1" x1="2656.5" y1="-85.9" x2="2656.5" y2="508.1"/>
	<line class="st1" x1="2621.5" y1="-85.9" x2="2621.5" y2="508.1"/>
	<line class="st1" x1="2587.5" y1="-85.9" x2="2587.5" y2="508.1"/>
	<line class="st1" x1="2553.5" y1="-85.9" x2="2553.5" y2="508.1"/>
	<line class="st1" x1="2518.5" y1="-85.9" x2="2518.5" y2="508.1"/>
	<line class="st1" x1="2484.5" y1="-85.9" x2="2484.5" y2="508.1"/>
	<line class="st1" x1="2450.5" y1="-85.9" x2="2450.5" y2="508.1"/>
	<line class="st1" x1="2416.5" y1="-85.9" x2="2416.5" y2="508.1"/>
	<line class="st1" x1="2381.5" y1="-85.9" x2="2381.5" y2="508.1"/>
	<line class="st1" x1="2347.5" y1="-85.9" x2="2347.5" y2="508.1"/>
	<line class="st1" x1="2313.5" y1="-85.9" x2="2313.5" y2="508.1"/>
	<line class="st1" x1="2279.5" y1="-85.9" x2="2279.5" y2="508.1"/>
	<line class="st1" x1="2244.5" y1="-85.9" x2="2244.5" y2="508.1"/>
	<line class="st1" x1="2210.5" y1="-85.9" x2="2210.5" y2="508.1"/>
	<line class="st1" x1="2176.5" y1="-85.9" x2="2176.5" y2="508.1"/>
	<line class="st1" x1="2141.5" y1="-85.9" x2="2141.5" y2="508.1"/>
	<line class="st1" x1="2107.5" y1="-85.9" x2="2107.5" y2="508.1"/>
	<line class="st1" x1="2073.5" y1="-85.9" x2="2073.5" y2="508.1"/>
	<line class="st1" x1="2039.5" y1="-85.9" x2="2039.5" y2="508.1"/>
	<line class="st1" x1="2004.5" y1="-85.9" x2="2004.5" y2="508.1"/>
	<line class="st1" x1="1970.5" y1="-85.9" x2="1970.5" y2="508.1"/>
	<line class="st1" x1="1936.5" y1="-85.9" x2="1936.5" y2="508.1"/>
	<line class="st1" x1="1902.5" y1="-85.9" x2="1902.5" y2="508.1"/>
	<line class="st1" x1="1867.5" y1="-85.9" x2="1867.5" y2="508.1"/>
	<line class="st1" x1="1833.5" y1="-85.9" x2="1833.5" y2="508.1"/>
	<line class="st1" x1="1799.5" y1="-85.9" x2="1799.5" y2="508.1"/>
	<line class="st1" x1="1764.5" y1="-85.9" x2="1764.5" y2="508.1"/>
	<line class="st1" x1="1730.5" y1="-85.9" x2="1730.5" y2="508.1"/>
	<line class="st1" x1="1696.5" y1="-85.9" x2="1696.5" y2="508.1"/>
	<line class="st1" x1="1662.5" y1="-85.9" x2="1662.5" y2="508.1"/>
	<line class="st1" x1="1627.5" y1="-85.9" x2="1627.5" y2="508.1"/>
	<line class="st1" x1="1593.5" y1="-85.9" x2="1593.5" y2="508.1"/>
	<line class="st1" x1="1559.5" y1="-85.9" x2="1559.5" y2="508.1"/>
	<line class="st1" x1="1525.5" y1="-85.9" x2="1525.5" y2="508.1"/>
	<line class="st1" x1="1490.5" y1="-85.9" x2="1490.5" y2="508.1"/>
	<line class="st1" x1="1456.5" y1="-85.9" x2="1456.5" y2="508.1"/>
	<line class="st1" x1="1422.5" y1="-85.9" x2="1422.5" y2="508.1"/>
	<line class="st1" x1="1388.5" y1="-85.9" x2="1388.5" y2="508.1"/>
	<line class="st1" x1="1353.5" y1="-85.9" x2="1353.5" y2="508.1"/>
	<line class="st1" x1="1319.5" y1="-85.9" x2="1319.5" y2="508.1"/>
	<line class="st1" x1="1285.5" y1="-85.9" x2="1285.5" y2="508.1"/>
	<line class="st1" x1="1250.5" y1="-85.9" x2="1250.5" y2="508.1"/>
	<line class="st1" x1="1216.5" y1="-85.9" x2="1216.5" y2="508.1"/>
	<line class="st1" x1="1182.5" y1="-85.9" x2="1182.5" y2="508.1"/>
	<line class="st1" x1="1148.5" y1="-85.9" x2="1148.5" y2="508.1"/>
	<line class="st1" x1="1113.5" y1="-85.9" x2="1113.5" y2="508.1"/>
	<line class="st1" x1="1079.5" y1="-85.9" x2="1079.5" y2="508.1"/>
	<line class="st1" x1="1045.5" y1="-85.9" x2="1045.5" y2="508.1"/>
	<line class="st1" x1="1011.5" y1="-85.9" x2="1011.5" y2="508.1"/>
	<line class="st1" x1="976.5" y1="-85.9" x2="976.5" y2="508.1"/>
	<line class="st1" x1="942.5" y1="-85.9" x2="942.5" y2="508.1"/>
	<line class="st1" x1="908.5" y1="-85.9" x2="908.5" y2="508.1"/>
	<line class="st1" x1="873.5" y1="-85.9" x2="873.5" y2="508.1"/>
	<line class="st1" x1="839.5" y1="-85.9" x2="839.5" y2="508.1"/>
	<line class="st1" x1="805.5" y1="-85.9" x2="805.5" y2="508.1"/>
	<line class="st1" x1="771.5" y1="-85.9" x2="771.5" y2="508.1"/>
	<line class="st1" x1="736.5" y1="-85.9" x2="736.5" y2="508.1"/>
	<line class="st1" x1="702.5" y1="-85.9" x2="702.5" y2="508.1"/>
	<line class="st1" x1="668.5" y1="-85.9" x2="668.5" y2="508.1"/>
	<line class="st1" x1="634.5" y1="-85.9" x2="634.5" y2="508.1"/>
	<line class="st1" x1="599.5" y1="-85.9" x2="599.5" y2="508.1"/>
	<line class="st1" x1="565.5" y1="-85.9" x2="565.5" y2="508.1"/>
	<line class="st1" x1="531.5" y1="-85.9" x2="531.5" y2="508.1"/>
	<line class="st1" x1="496.5" y1="-85.9" x2="496.5" y2="508.1"/>
	<line class="st1" x1="462.5" y1="-85.9" x2="462.5" y2="508.1"/>
	<line class="st1" x1="428.5" y1="-85.9" x2="428.5" y2="508.1"/>
	<line class="st1" x1="394.5" y1="-85.9" x2="394.5" y2="508.1"/>
	<line class="st1" x1="359.5" y1="-85.9" x2="359.5" y2="508.1"/>
	<line class="st1" x1="325.5" y1="-85.9" x2="325.5" y2="508.1"/>
	<line class="st1" x1="291.5" y1="-85.9" x2="291.5" y2="508.1"/>
	<line class="st1" x1="257.5" y1="-85.9" x2="257.5" y2="508.1"/>
	<line class="st1" x1="222.5" y1="-85.9" x2="222.5" y2="508.1"/>
	<line class="st1" x1="188.5" y1="-85.9" x2="188.5" y2="508.1"/>
	<line class="st1" x1="154.5" y1="-85.9" x2="154.5" y2="508.1"/>
	<line class="st1" x1="120.5" y1="-85.9" x2="120.5" y2="508.1"/>
	<line class="st1" x1="85.5" y1="-85.9" x2="85.5" y2="508.1"/>
	<line class="st1" x1="51.5" y1="-85.9" x2="51.5" y2="508.1"/>
	<line class="st1" x1="32.5" y1="-85.9" x2="32.5" y2="508.1"/>
	<line class="st1" x1="17.5" y1="-85.9" x2="17.5" y2="508.1"/>
	<path class="st1" d="M-17.5,508.1"/>
	<path class="st1" d="M-17.5-85.9"/>
</g>
<g class="st2">
	<path class="st1" d="M3117,408.6"/>
	<path class="st1" d="M33,408.6"/>
	<path class="st1" d="M3117,309.6"/>
	<path class="st1" d="M33,309.6"/>
	<path class="st1" d="M3117,210.6"/>
	<path class="st1" d="M33,210.6"/>
	<path class="st1" d="M3117,111.6"/>
	<path class="st1" d="M33,111.6"/>
	<path class="st1" d="M3117,12.6"/>
	<path class="st1" d="M33,12.6"/>
	<path class="st1" d="M3082.5,508.1"/>
	<path class="st1" d="M3082.5-85.9"/>
	<line class="st1" x1="3048.5" y1="-85.9" x2="3048.5" y2="508.1"/>
	<line class="st1" x1="3014.5" y1="-85.9" x2="3014.5" y2="508.1"/>
	<line class="st1" x1="2979.5" y1="-85.9" x2="2979.5" y2="508.1"/>
	<line class="st1" x1="2945.5" y1="-85.9" x2="2945.5" y2="508.1"/>
	<line class="st1" x1="2911.5" y1="-85.9" x2="2911.5" y2="508.1"/>
	<line class="st1" x1="2877.5" y1="-85.9" x2="2877.5" y2="508.1"/>
	<line class="st1" x1="2842.5" y1="-85.9" x2="2842.5" y2="508.1"/>
	<line class="st1" x1="2808.5" y1="-85.9" x2="2808.5" y2="508.1"/>
	<line class="st1" x1="2774.5" y1="-85.9" x2="2774.5" y2="508.1"/>
	<line class="st1" x1="2740.5" y1="-85.9" x2="2740.5" y2="508.1"/>
	<line class="st1" x1="2705.5" y1="-85.9" x2="2705.5" y2="508.1"/>
	<line class="st1" x1="2671.5" y1="-85.9" x2="2671.5" y2="508.1"/>
	<line class="st1" x1="2637.5" y1="-85.9" x2="2637.5" y2="508.1"/>
	<line class="st1" x1="2602.5" y1="-85.9" x2="2602.5" y2="508.1"/>
	<line class="st1" x1="2568.5" y1="-85.9" x2="2568.5" y2="508.1"/>
	<line class="st1" x1="2534.5" y1="-85.9" x2="2534.5" y2="508.1"/>
	<line class="st1" x1="2500.5" y1="-85.9" x2="2500.5" y2="508.1"/>
	<line class="st1" x1="2465.5" y1="-85.9" x2="2465.5" y2="508.1"/>
	<line class="st1" x1="2431.5" y1="-85.9" x2="2431.5" y2="508.1"/>
	<line class="st1" x1="2397.5" y1="-85.9" x2="2397.5" y2="508.1"/>
	<line class="st1" x1="2363.5" y1="-85.9" x2="2363.5" y2="508.1"/>
	<line class="st1" x1="2328.5" y1="-85.9" x2="2328.5" y2="508.1"/>
	<line class="st1" x1="2294.5" y1="-85.9" x2="2294.5" y2="508.1"/>
	<line class="st1" x1="2260.5" y1="-85.9" x2="2260.5" y2="508.1"/>
	<line class="st1" x1="2225.5" y1="-85.9" x2="2225.5" y2="508.1"/>
	<line class="st1" x1="2191.5" y1="-85.9" x2="2191.5" y2="508.1"/>
	<line class="st1" x1="2157.5" y1="-85.9" x2="2157.5" y2="508.1"/>
	<line class="st1" x1="2123.5" y1="-85.9" x2="2123.5" y2="508.1"/>
	<line class="st1" x1="2088.5" y1="-85.9" x2="2088.5" y2="508.1"/>
	<line class="st1" x1="2054.5" y1="-85.9" x2="2054.5" y2="508.1"/>
	<line class="st1" x1="2020.5" y1="-85.9" x2="2020.5" y2="508.1"/>
	<line class="st1" x1="1986.5" y1="-85.9" x2="1986.5" y2="508.1"/>
	<line class="st1" x1="1951.5" y1="-85.9" x2="1951.5" y2="508.1"/>
	<line class="st1" x1="1917.5" y1="-85.9" x2="1917.5" y2="508.1"/>
	<line class="st1" x1="1883.5" y1="-85.9" x2="1883.5" y2="508.1"/>
	<line class="st1" x1="1848.5" y1="-85.9" x2="1848.5" y2="508.1"/>
	<line class="st1" x1="1814.5" y1="-85.9" x2="1814.5" y2="508.1"/>
	<line class="st1" x1="1780.5" y1="-85.9" x2="1780.5" y2="508.1"/>
	<line class="st1" x1="1746.5" y1="-85.9" x2="1746.5" y2="508.1"/>
	<line class="st1" x1="1711.5" y1="-85.9" x2="1711.5" y2="508.1"/>
	<line class="st1" x1="1677.5" y1="-85.9" x2="1677.5" y2="508.1"/>
	<line class="st1" x1="1643.5" y1="-85.9" x2="1643.5" y2="508.1"/>
	<line class="st1" x1="1609.5" y1="-85.9" x2="1609.5" y2="508.1"/>
	<line class="st1" x1="1574.5" y1="-85.9" x2="1574.5" y2="508.1"/>
	<line class="st1" x1="1540.5" y1="-85.9" x2="1540.5" y2="508.1"/>
	<line class="st1" x1="1506.5" y1="-85.9" x2="1506.5" y2="508.1"/>
	<line class="st1" x1="1472.5" y1="-85.9" x2="1472.5" y2="508.1"/>
	<line class="st1" x1="1437.5" y1="-85.9" x2="1437.5" y2="508.1"/>
	<line class="st1" x1="1403.5" y1="-85.9" x2="1403.5" y2="508.1"/>
	<line class="st1" x1="1369.5" y1="-85.9" x2="1369.5" y2="508.1"/>
	<line class="st1" x1="1334.5" y1="-85.9" x2="1334.5" y2="508.1"/>
	<line class="st1" x1="1300.5" y1="-85.9" x2="1300.5" y2="508.1"/>
	<line class="st1" x1="1266.5" y1="-85.9" x2="1266.5" y2="508.1"/>
	<line class="st1" x1="1232.5" y1="-85.9" x2="1232.5" y2="508.1"/>
	<line class="st1" x1="1197.5" y1="-85.9" x2="1197.5" y2="508.1"/>
	<line class="st1" x1="1163.5" y1="-85.9" x2="1163.5" y2="508.1"/>
	<line class="st1" x1="1129.5" y1="-85.9" x2="1129.5" y2="508.1"/>
	<line class="st1" x1="1095.5" y1="-85.9" x2="1095.5" y2="508.1"/>
	<line class="st1" x1="1060.5" y1="-85.9" x2="1060.5" y2="508.1"/>
	<line class="st1" x1="1026.5" y1="-85.9" x2="1026.5" y2="508.1"/>
	<line class="st1" x1="992.5" y1="-85.9" x2="992.5" y2="508.1"/>
	<line class="st1" x1="957.5" y1="-85.9" x2="957.5" y2="508.1"/>
	<line class="st1" x1="923.5" y1="-85.9" x2="923.5" y2="508.1"/>
	<line class="st1" x1="889.5" y1="-85.9" x2="889.5" y2="508.1"/>
	<line class="st1" x1="855.5" y1="-85.9" x2="855.5" y2="508.1"/>
	<line class="st1" x1="820.5" y1="-85.9" x2="820.5" y2="508.1"/>
	<line class="st1" x1="786.5" y1="-85.9" x2="786.5" y2="508.1"/>
	<line class="st1" x1="752.5" y1="-85.9" x2="752.5" y2="508.1"/>
	<line class="st1" x1="718.5" y1="-85.9" x2="718.5" y2="508.1"/>
	<line class="st1" x1="683.5" y1="-85.9" x2="683.5" y2="508.1"/>
	<line class="st1" x1="649.5" y1="-85.9" x2="649.5" y2="508.1"/>
	<line class="st1" x1="615.5" y1="-85.9" x2="615.5" y2="508.1"/>
	<line class="st1" x1="580.5" y1="-85.9" x2="580.5" y2="508.1"/>
	<line class="st1" x1="546.5" y1="-85.9" x2="546.5" y2="508.1"/>
	<line class="st1" x1="512.5" y1="-85.9" x2="512.5" y2="508.1"/>
	<line class="st1" x1="478.5" y1="-85.9" x2="478.5" y2="508.1"/>
	<line class="st1" x1="443.5" y1="-85.9" x2="443.5" y2="508.1"/>
	<line class="st1" x1="409.5" y1="-85.9" x2="409.5" y2="508.1"/>
	<line class="st1" x1="375.5" y1="-85.9" x2="375.5" y2="508.1"/>
	<line class="st1" x1="341.5" y1="-85.9" x2="341.5" y2="508.1"/>
	<line class="st1" x1="306.5" y1="-85.9" x2="306.5" y2="508.1"/>
	<line class="st1" x1="272.5" y1="-85.9" x2="272.5" y2="508.1"/>
	<line class="st1" x1="238.5" y1="-85.9" x2="238.5" y2="508.1"/>
	<line class="st1" x1="204.5" y1="-85.9" x2="204.5" y2="508.1"/>
	<line class="st1" x1="169.5" y1="-85.9" x2="169.5" y2="508.1"/>
	<line class="st1" x1="135.5" y1="-85.9" x2="135.5" y2="508.1"/>
	<line class="st1" x1="101.5" y1="-85.9" x2="101.5" y2="508.1"/>
	<line class="st1" x1="66.5" y1="-85.9" x2="66.5" y2="508.1"/>
</g>
<g>
</g>
<g>
</g>
<g>
</g>
<g>
</g>
<g>
</g>
<g>
</g>
<g>
</g>
<g>
</g>
<g>
</g>
<g>
</g>
<g>
</g>
<g>
</g>
<g>
</g>
<g>
</g>
<g>
</g>
</svg>
