<?xml version="1.0" encoding="utf-8"?>
<!-- Generator: Adobe Illustrator 19.1.0, SVG Export Plug-In . SVG Version: 6.00 Build 0)  -->
<svg version="1.1" id="Layer_1" xmlns="http://www.w3.org/2000/svg" xmlns:xlink="http://www.w3.org/1999/xlink" x="0px" y="0px"
	 viewBox="0 0 190 32" style="enable-background:new 0 0 190 32;" xml:space="preserve">
<style type="text/css">
	.st0{fill:#000001;}
</style>
<symbol  id="New_Symbol_8" viewBox="-13.1 -23.1 26.2 46.2">
	<polygon class="st0" points="12.7,2.6 12.8,-2.6 12.8,-2.6 	"/>
	<g id="New_Symbol_7_1_">
		<g>
			<g>
				<path d="M12.9,11.9l-0.4-5.2L-5.9,8.6l0,5.3C0.2,13.3,6.9,12.5,12.9,11.9z"/>
				<path d="M12.9,2.7L-7.7,2.6l-0.1,15.2L12.7,18l0,5.1L-13.1,23L-13-2.7L7.7-2.6l0.1-15.1l-20.4-0.1l0-5.3l25.7,0.1L12.9,2.7z
					 M12.8-2.6l-0.1,5.3L12.8-2.6L12.8-2.6z"/>
				<polygon points="12.8,-2.6 12.8,-2.6 12.7,2.6 				"/>
			</g>
			<g>
				<path d="M12.7,2.6l0.1-5.3h0L12.7,2.6z"/>
				<path d="M5.9-11.7l-18.3-2.1l-0.5,5.2C-7-7.9-0.2-7.1,5.9-6.4L5.9-11.7z"/>
			</g>
		</g>
	</g>
</symbol>
<g id="New_Symbol_3">
	<g>
		<path d="M26.7,19c0.8,0,1.3-0.1,1.7-0.4s0.5-0.6,0.5-1.1c0-0.3-0.1-0.5-0.2-0.7c-0.1-0.2-0.3-0.4-0.5-0.6s-0.5-0.3-0.8-0.5
			c-0.3-0.1-0.7-0.3-1.1-0.4c-0.4-0.1-0.8-0.3-1.2-0.5c-0.4-0.2-0.7-0.4-1-0.7c-0.3-0.3-0.5-0.6-0.7-0.9c-0.2-0.4-0.3-0.8-0.3-1.3
			c0-1.1,0.4-1.9,1.1-2.5s1.7-0.9,3-0.9c0.7,0,1.4,0.1,2,0.2c0.6,0.2,1,0.3,1.3,0.5L29.9,11c-0.4-0.2-0.8-0.4-1.3-0.5
			c-0.5-0.1-0.9-0.2-1.4-0.2c-0.6,0-1,0.1-1.3,0.4c-0.3,0.2-0.5,0.6-0.5,1c0,0.3,0.1,0.5,0.2,0.7c0.1,0.2,0.3,0.4,0.5,0.5
			c0.2,0.1,0.4,0.3,0.7,0.4c0.3,0.1,0.6,0.2,0.9,0.4c0.6,0.2,1,0.4,1.5,0.6c0.4,0.2,0.8,0.5,1.1,0.7c0.3,0.3,0.5,0.6,0.7,1
			c0.2,0.4,0.2,0.9,0.2,1.4c0,1.1-0.4,1.9-1.1,2.5c-0.8,0.6-1.8,0.9-3.3,0.9c-0.5,0-0.9,0-1.3-0.1c-0.4-0.1-0.8-0.1-1.1-0.2
			c-0.3-0.1-0.6-0.2-0.8-0.3c-0.2-0.1-0.4-0.2-0.5-0.3l0.6-1.7c0.3,0.2,0.7,0.3,1.2,0.5C25.3,18.9,25.9,19,26.7,19z"/>
		<path d="M40.8,20.5c-0.2-0.5-0.3-0.9-0.5-1.4c-0.2-0.5-0.3-0.9-0.5-1.4h-5c-0.2,0.5-0.3,0.9-0.5,1.4s-0.3,0.9-0.5,1.4h-2.2
			c0.4-1.3,0.9-2.4,1.3-3.5c0.4-1.1,0.8-2.1,1.2-3s0.8-1.9,1.1-2.7c0.4-0.9,0.8-1.7,1.2-2.5h2c0.4,0.8,0.8,1.7,1.2,2.5
			c0.4,0.9,0.7,1.8,1.1,2.7s0.8,2,1.2,3c0.4,1.1,0.8,2.2,1.3,3.5H40.8z M37.3,11.1c-0.3,0.6-0.6,1.3-0.9,2.2c-0.3,0.9-0.7,1.8-1,2.8
			h3.9c-0.4-1-0.7-1.9-1-2.8C37.8,12.4,37.5,11.7,37.3,11.1z"/>
		<path d="M47.8,8.7c1.7,0,3,0.3,3.9,0.9c0.9,0.6,1.3,1.6,1.3,2.8c0,1.6-0.8,2.7-2.4,3.2c0.2,0.3,0.5,0.6,0.7,0.9
			c0.3,0.4,0.5,0.8,0.8,1.2s0.6,0.9,0.8,1.3c0.3,0.5,0.5,0.9,0.7,1.3h-2.4c-0.2-0.4-0.4-0.8-0.7-1.2c-0.2-0.4-0.5-0.8-0.8-1.2
			c-0.3-0.4-0.5-0.8-0.8-1.1c-0.2-0.3-0.5-0.7-0.7-0.9c-0.2,0-0.3,0-0.4,0c-0.1,0-0.2,0-0.3,0h-1v4.4h-2.1V9
			c0.5-0.1,1.1-0.2,1.7-0.2S47.3,8.7,47.8,8.7z M47.9,10.5c-0.5,0-0.9,0-1.3,0.1v3.8h0.9c0.5,0,1,0,1.4-0.1c0.4-0.1,0.7-0.2,1-0.3
			c0.3-0.1,0.5-0.3,0.6-0.6c0.1-0.2,0.2-0.6,0.2-0.9c0-0.4-0.1-0.7-0.2-0.9c-0.1-0.2-0.3-0.4-0.6-0.6c-0.3-0.1-0.6-0.3-0.9-0.3
			C48.7,10.6,48.3,10.5,47.9,10.5z"/>
		<path d="M55.4,8.8h2.1v11.7h-2.1V8.8z"/>
		<path d="M68.5,8.8v1.8h-3.6v9.9h-2.2v-9.9h-3.6V8.8H68.5z"/>
		<path d="M76.9,19c0.8,0,1.3-0.1,1.7-0.4s0.5-0.6,0.5-1.1c0-0.3-0.1-0.5-0.2-0.7c-0.1-0.2-0.3-0.4-0.5-0.6s-0.5-0.3-0.8-0.5
			c-0.3-0.1-0.7-0.3-1.1-0.4c-0.4-0.1-0.8-0.3-1.2-0.5c-0.4-0.2-0.7-0.4-1-0.7c-0.3-0.3-0.5-0.6-0.7-0.9c-0.2-0.4-0.3-0.8-0.3-1.3
			c0-1.1,0.4-1.9,1.1-2.5s1.7-0.9,3-0.9c0.7,0,1.4,0.1,2,0.2c0.6,0.2,1,0.3,1.3,0.5L80.2,11c-0.4-0.2-0.8-0.4-1.3-0.5
			c-0.5-0.1-0.9-0.2-1.4-0.2c-0.6,0-1,0.1-1.3,0.4c-0.3,0.2-0.5,0.6-0.5,1c0,0.3,0.1,0.5,0.2,0.7c0.1,0.2,0.3,0.4,0.5,0.5
			c0.2,0.1,0.4,0.3,0.7,0.4c0.3,0.1,0.6,0.2,0.9,0.4c0.6,0.2,1,0.4,1.5,0.6c0.4,0.2,0.8,0.5,1.1,0.7c0.3,0.3,0.5,0.6,0.7,1
			c0.2,0.4,0.2,0.9,0.2,1.4c0,1.1-0.4,1.9-1.1,2.5c-0.8,0.6-1.8,0.9-3.3,0.9c-0.5,0-0.9,0-1.3-0.1c-0.4-0.1-0.8-0.1-1.1-0.2
			c-0.3-0.1-0.6-0.2-0.8-0.3c-0.2-0.1-0.4-0.2-0.5-0.3l0.6-1.7c0.3,0.2,0.7,0.3,1.2,0.5C75.6,18.9,76.2,19,76.9,19z"/>
		<path d="M91,20.5c-0.2-0.5-0.3-0.9-0.5-1.4c-0.2-0.5-0.3-0.9-0.5-1.4h-5c-0.2,0.5-0.3,0.9-0.5,1.4s-0.3,0.9-0.5,1.4h-2.2
			c0.4-1.3,0.9-2.4,1.3-3.5c0.4-1.1,0.8-2.1,1.2-3s0.8-1.9,1.1-2.7c0.4-0.9,0.8-1.7,1.2-2.5h2c0.4,0.8,0.8,1.7,1.2,2.5
			c0.4,0.9,0.7,1.8,1.1,2.7s0.8,2,1.2,3c0.4,1.1,0.8,2.2,1.3,3.5H91z M87.6,11.1c-0.3,0.6-0.6,1.3-0.9,2.2c-0.3,0.9-0.7,1.8-1,2.8
			h3.9c-0.4-1-0.7-1.9-1-2.8C88.1,12.4,87.8,11.7,87.6,11.1z"/>
		<path d="M104.8,14.7c0,1-0.2,1.9-0.5,2.7s-0.8,1.4-1.3,1.9c-0.6,0.5-1.3,0.9-2.1,1.1c-0.8,0.2-1.7,0.4-2.7,0.4c-0.5,0-1,0-1.6-0.1
			c-0.6,0-1.2-0.1-1.7-0.2V9c0.5-0.1,1.1-0.2,1.7-0.2c0.6,0,1.2-0.1,1.6-0.1c1,0,1.9,0.1,2.7,0.3c0.8,0.2,1.5,0.6,2.1,1.1
			c0.6,0.5,1,1.1,1.3,1.9S104.8,13.6,104.8,14.7z M96.9,18.8c0.1,0,0.3,0,0.5,0s0.5,0,0.8,0c1.4,0,2.5-0.4,3.2-1.1
			c0.7-0.7,1.1-1.7,1.1-3.1c0-1.3-0.3-2.4-1-3.1c-0.7-0.7-1.8-1.1-3.2-1.1c-0.6,0-1.1,0-1.4,0.1V18.8z"/>
		<path d="M107.1,20.5V8.8h7.5v1.8h-5.4v2.9h4.8v1.8h-4.8v3.4h5.8v1.8H107.1z"/>
		<path d="M124.2,8.8h2.1v11.7h-2.1v-5.2h-5.1v5.2H117V8.8h2.1v4.7h5.1V8.8z"/>
		<path d="M135.7,8.8c0.2,0.4,0.5,1,0.8,1.6c0.3,0.6,0.6,1.3,0.9,2c0.3,0.7,0.6,1.4,0.9,2.1s0.6,1.4,0.9,2c0.3-0.6,0.5-1.2,0.8-2
			s0.6-1.4,0.9-2.1c0.3-0.7,0.6-1.3,0.9-2c0.3-0.6,0.6-1.1,0.8-1.6h1.9c0.1,0.9,0.2,1.8,0.3,2.7s0.2,2,0.2,3c0.1,1,0.1,2,0.2,3
			c0.1,1,0.1,2,0.2,3h-2.1c0-1.4-0.1-2.8-0.2-4.2c-0.1-1.4-0.2-2.8-0.3-4.2c-0.1,0.3-0.3,0.6-0.4,0.9s-0.4,0.8-0.5,1.2
			c-0.2,0.4-0.4,0.9-0.6,1.3c-0.2,0.5-0.4,0.9-0.6,1.3s-0.4,0.8-0.5,1.2c-0.2,0.4-0.3,0.7-0.4,0.9h-1.6c-0.1-0.3-0.2-0.6-0.4-0.9
			c-0.2-0.4-0.3-0.8-0.5-1.2c-0.2-0.4-0.4-0.9-0.6-1.3c-0.2-0.5-0.4-0.9-0.6-1.3c-0.2-0.4-0.4-0.8-0.5-1.2c-0.2-0.4-0.3-0.7-0.4-0.9
			c-0.1,1.4-0.2,2.8-0.3,4.2c-0.1,1.4-0.1,2.9-0.2,4.2h-2.1c0-1,0.1-2,0.2-3c0.1-1,0.1-2.1,0.2-3.1c0.1-1,0.2-2,0.2-3
			s0.2-1.8,0.3-2.7H135.7z"/>
		<path d="M159,14.7c0,1-0.2,1.9-0.4,2.7c-0.3,0.8-0.7,1.4-1.2,1.9c-0.5,0.5-1.1,0.9-1.8,1.2c-0.7,0.3-1.4,0.4-2.2,0.4
			c-0.8,0-1.5-0.1-2.2-0.4c-0.7-0.3-1.3-0.6-1.8-1.2c-0.5-0.5-0.9-1.2-1.2-1.9c-0.3-0.8-0.5-1.7-0.5-2.7s0.2-1.9,0.5-2.7
			c0.3-0.8,0.7-1.4,1.2-1.9c0.5-0.5,1.1-0.9,1.8-1.2c0.7-0.3,1.4-0.4,2.2-0.4s1.5,0.1,2.2,0.4s1.3,0.6,1.8,1.2
			c0.5,0.5,0.9,1.2,1.2,1.9C158.9,12.8,159,13.7,159,14.7z M149.8,14.7c0,0.6,0.1,1.2,0.2,1.8s0.4,1,0.7,1.3
			c0.3,0.4,0.7,0.7,1.1,0.9c0.4,0.2,0.9,0.3,1.5,0.3c0.5,0,1-0.1,1.4-0.3s0.8-0.5,1.1-0.9c0.3-0.4,0.5-0.8,0.7-1.3s0.2-1.1,0.2-1.8
			s-0.1-1.2-0.2-1.8s-0.4-1-0.7-1.3c-0.3-0.4-0.7-0.7-1.1-0.9s-0.9-0.3-1.4-0.3c-0.5,0-1,0.1-1.5,0.3c-0.4,0.2-0.8,0.5-1.1,0.9
			c-0.3,0.4-0.5,0.8-0.7,1.3C149.9,13.4,149.8,14,149.8,14.7z"/>
		<path d="M164,19c0.8,0,1.3-0.1,1.7-0.4s0.5-0.6,0.5-1.1c0-0.3-0.1-0.5-0.2-0.7c-0.1-0.2-0.3-0.4-0.5-0.6c-0.2-0.2-0.5-0.3-0.8-0.5
			c-0.3-0.1-0.7-0.3-1.1-0.4c-0.4-0.1-0.8-0.3-1.2-0.5c-0.4-0.2-0.7-0.4-1-0.7s-0.5-0.6-0.7-0.9c-0.2-0.4-0.3-0.8-0.3-1.3
			c0-1.1,0.4-1.9,1.1-2.5s1.7-0.9,3-0.9c0.7,0,1.4,0.1,2,0.2c0.6,0.2,1,0.3,1.3,0.5l-0.7,1.7c-0.4-0.2-0.8-0.4-1.3-0.5
			c-0.5-0.1-0.9-0.2-1.4-0.2c-0.6,0-1,0.1-1.3,0.4c-0.3,0.2-0.5,0.6-0.5,1c0,0.3,0.1,0.5,0.2,0.7c0.1,0.2,0.3,0.4,0.5,0.5
			c0.2,0.1,0.4,0.3,0.7,0.4c0.3,0.1,0.6,0.2,0.9,0.4c0.6,0.2,1,0.4,1.5,0.6c0.4,0.2,0.8,0.5,1.1,0.7c0.3,0.3,0.5,0.6,0.7,1
			c0.2,0.4,0.2,0.9,0.2,1.4c0,1.1-0.4,1.9-1.1,2.5c-0.8,0.6-1.8,0.9-3.3,0.9c-0.5,0-0.9,0-1.3-0.1c-0.4-0.1-0.8-0.1-1.1-0.2
			c-0.3-0.1-0.6-0.2-0.8-0.3c-0.2-0.1-0.4-0.2-0.5-0.3l0.6-1.7c0.3,0.2,0.7,0.3,1.2,0.5C162.7,18.9,163.3,19,164,19z"/>
		<path d="M170.3,20.5V8.8h7.5v1.8h-5.4v2.9h4.8v1.8h-4.8v3.4h5.8v1.8H170.3z"/>
		<path d="M183.1,19c0.8,0,1.3-0.1,1.7-0.4s0.5-0.6,0.5-1.1c0-0.3-0.1-0.5-0.2-0.7c-0.1-0.2-0.3-0.4-0.5-0.6
			c-0.2-0.2-0.5-0.3-0.8-0.5c-0.3-0.1-0.7-0.3-1.1-0.4c-0.4-0.1-0.8-0.3-1.2-0.5c-0.4-0.2-0.7-0.4-1-0.7s-0.5-0.6-0.7-0.9
			c-0.2-0.4-0.3-0.8-0.3-1.3c0-1.1,0.4-1.9,1.1-2.5s1.7-0.9,3-0.9c0.7,0,1.4,0.1,2,0.2c0.6,0.2,1,0.3,1.3,0.5l-0.7,1.7
			c-0.4-0.2-0.8-0.4-1.3-0.5c-0.5-0.1-0.9-0.2-1.4-0.2c-0.6,0-1,0.1-1.3,0.4c-0.3,0.2-0.5,0.6-0.5,1c0,0.3,0.1,0.5,0.2,0.7
			c0.1,0.2,0.3,0.4,0.5,0.5c0.2,0.1,0.4,0.3,0.7,0.4c0.3,0.1,0.6,0.2,0.9,0.4c0.6,0.2,1,0.4,1.5,0.6c0.4,0.2,0.8,0.5,1.1,0.7
			c0.3,0.3,0.5,0.6,0.7,1c0.2,0.4,0.2,0.9,0.2,1.4c0,1.1-0.4,1.9-1.1,2.5c-0.8,0.6-1.8,0.9-3.3,0.9c-0.5,0-0.9,0-1.3-0.1
			c-0.4-0.1-0.8-0.1-1.1-0.2c-0.3-0.1-0.6-0.2-0.8-0.3c-0.2-0.1-0.4-0.2-0.5-0.3l0.6-1.7c0.3,0.2,0.7,0.3,1.2,0.5
			C181.7,18.9,182.4,19,183.1,19z"/>
	</g>
</g>
<use xlink:href="#New_Symbol_8"  width="26.2" height="46.2" x="-13.1" y="-23.1" transform="matrix(-0.4294 0 0 0.4294 9.2857 14.4121)" style="overflow:visible;"/>
<g>
</g>
<g>
</g>
<g>
</g>
<g>
</g>
<g>
</g>
<g>
</g>
<g>
</g>
<g>
</g>
<g>
</g>
<g>
</g>
<g>
</g>
<g>
</g>
<g>
</g>
<g>
</g>
<g>
</g>
<g>
</g>
<g>
</g>
<g>
</g>
<g>
</g>
<g>
</g>
<g>
</g>
<g>
</g>
</svg>
