<?xml version="1.0" encoding="utf-8"?>
<!-- Generator: Adobe Illustrator 19.1.0, SVG Export Plug-In . SVG Version: 6.00 Build 0)  -->
<svg version="1.1" id="Layer_1" xmlns="http://www.w3.org/2000/svg" xmlns:xlink="http://www.w3.org/1999/xlink" x="0px" y="0px"
	 viewBox="0 0 200 32" style="enable-background:new 0 0 200 32;" xml:space="preserve">
<style type="text/css">
	.st0{fill:#000001;}
</style>
<symbol  id="New_Symbol_6" viewBox="-49.5 -49.5 99 99">
	<path class="st0" d="M-49.5,49.5v-99h99v99H-49.5z M22.5-18.5h-42v6h42V-18.5z M-19.5-3.5v6h42v-6H-19.5z M22.4,14
		c-0.5-1.5-1.3-2.8-2.2-4.1c-1-1.3-2.2-2.4-3.7-3.3c-1.5-0.9-3.3-1.3-5.4-1.3c-1.8,0-3.5,0.4-5,1.1c-1.5,0.7-3,1.5-4.4,2.4
		c-1.6,1-3.2,1.9-4.7,2.9C-4.5,12.6-6.1,13-7.8,13c-1,0-1.8-0.2-2.5-0.7c-0.7-0.5-1.2-1-1.7-1.7c-0.5-0.7-0.9-1.5-1.2-2.3
		C-13.5,7.5-13.7,6.7-14,6l-5.8,1.6c0.2,1.1,0.6,2.5,1.2,3.9c0.5,1.5,1.3,2.9,2.2,4.2c0.9,1.3,2.1,2.4,3.6,3.3
		c1.5,0.9,3.3,1.3,5.4,1.3c1.8,0,3.5-0.4,5-1.1c1.5-0.7,3-1.5,4.4-2.4c1.6-1,3.2-1.9,4.7-2.9c1.5-0.9,3.1-1.4,4.8-1.4
		c1,0,1.8,0.2,2.5,0.7c0.7,0.4,1.2,1,1.7,1.7c0.5,0.7,0.9,1.4,1.2,2.3c0.3,0.8,0.6,1.6,0.8,2.4l5.8-1.6C23.3,16.8,22.9,15.5,22.4,14
		z"/>
</symbol>
<g id="New_Symbol_3">
	<g>
		<path d="M34.8,19c0.8,0,1.3-0.1,1.7-0.4s0.5-0.6,0.5-1.1c0-0.3-0.1-0.5-0.2-0.7c-0.1-0.2-0.3-0.4-0.5-0.6s-0.5-0.3-0.8-0.5
			c-0.3-0.1-0.7-0.3-1.1-0.4c-0.4-0.1-0.8-0.3-1.2-0.5c-0.4-0.2-0.7-0.4-1-0.7c-0.3-0.3-0.5-0.6-0.7-0.9c-0.2-0.4-0.3-0.8-0.3-1.3
			c0-1.1,0.4-1.9,1.1-2.5s1.7-0.9,3-0.9c0.7,0,1.4,0.1,2,0.2c0.6,0.2,1,0.3,1.3,0.5L38,11c-0.4-0.2-0.8-0.4-1.3-0.5
			c-0.5-0.1-0.9-0.2-1.4-0.2c-0.6,0-1,0.1-1.3,0.4c-0.3,0.2-0.5,0.6-0.5,1c0,0.3,0.1,0.5,0.2,0.7c0.1,0.2,0.3,0.4,0.5,0.5
			c0.2,0.1,0.4,0.3,0.7,0.4c0.3,0.1,0.6,0.2,0.9,0.4c0.6,0.2,1,0.4,1.5,0.6c0.4,0.2,0.8,0.5,1.1,0.7c0.3,0.3,0.5,0.6,0.7,1
			c0.2,0.4,0.2,0.9,0.2,1.4c0,1.1-0.4,1.9-1.1,2.5c-0.8,0.6-1.8,0.9-3.3,0.9c-0.5,0-0.9,0-1.3-0.1c-0.4-0.1-0.8-0.1-1.1-0.2
			c-0.3-0.1-0.6-0.2-0.8-0.3c-0.2-0.1-0.4-0.2-0.5-0.3l0.6-1.7c0.3,0.2,0.7,0.3,1.2,0.5C33.5,18.9,34.1,19,34.8,19z"/>
		<path d="M48.9,20.5c-0.2-0.5-0.3-0.9-0.5-1.4c-0.2-0.5-0.3-0.9-0.5-1.4h-5c-0.2,0.5-0.3,0.9-0.5,1.4s-0.3,0.9-0.5,1.4h-2.2
			c0.4-1.3,0.9-2.4,1.3-3.5c0.4-1.1,0.8-2.1,1.2-3s0.8-1.9,1.1-2.7c0.4-0.9,0.8-1.7,1.2-2.5h2c0.4,0.8,0.8,1.7,1.2,2.5
			c0.4,0.9,0.7,1.8,1.1,2.7s0.8,2,1.2,3c0.4,1.1,0.8,2.2,1.3,3.5H48.9z M45.5,11.1c-0.3,0.6-0.6,1.3-0.9,2.2c-0.3,0.9-0.7,1.8-1,2.8
			h3.9c-0.4-1-0.7-1.9-1-2.8C46,12.4,45.7,11.7,45.5,11.1z"/>
		<path d="M55.9,8.7c1.7,0,3,0.3,3.9,0.9c0.9,0.6,1.3,1.6,1.3,2.8c0,1.6-0.8,2.7-2.4,3.2c0.2,0.3,0.5,0.6,0.7,0.9
			c0.3,0.4,0.5,0.8,0.8,1.2s0.6,0.9,0.8,1.3c0.3,0.5,0.5,0.9,0.7,1.3h-2.4c-0.2-0.4-0.4-0.8-0.7-1.2c-0.2-0.4-0.5-0.8-0.8-1.2
			c-0.3-0.4-0.5-0.8-0.8-1.1c-0.2-0.3-0.5-0.7-0.7-0.9c-0.2,0-0.3,0-0.4,0c-0.1,0-0.2,0-0.3,0h-1v4.4h-2.1V9
			c0.5-0.1,1.1-0.2,1.7-0.2S55.5,8.7,55.9,8.7z M56.1,10.5c-0.5,0-0.9,0-1.3,0.1v3.8h0.9c0.5,0,1,0,1.4-0.1c0.4-0.1,0.7-0.2,1-0.3
			c0.3-0.1,0.5-0.3,0.6-0.6c0.1-0.2,0.2-0.6,0.2-0.9c0-0.4-0.1-0.7-0.2-0.9c-0.1-0.2-0.3-0.4-0.6-0.6c-0.3-0.1-0.6-0.3-0.9-0.3
			C56.9,10.6,56.5,10.5,56.1,10.5z"/>
		<path d="M63.5,8.8h2.1v11.7h-2.1V8.8z"/>
		<path d="M76.7,8.8v1.8H73v9.9h-2.2v-9.9h-3.6V8.8H76.7z"/>
		<path d="M85.1,19c0.8,0,1.3-0.1,1.7-0.4s0.5-0.6,0.5-1.1c0-0.3-0.1-0.5-0.2-0.7c-0.1-0.2-0.3-0.4-0.5-0.6s-0.5-0.3-0.8-0.5
			c-0.3-0.1-0.7-0.3-1.1-0.4c-0.4-0.1-0.8-0.3-1.2-0.5c-0.4-0.2-0.7-0.4-1-0.7c-0.3-0.3-0.5-0.6-0.7-0.9c-0.2-0.4-0.3-0.8-0.3-1.3
			c0-1.1,0.4-1.9,1.1-2.5s1.7-0.9,3-0.9c0.7,0,1.4,0.1,2,0.2c0.6,0.2,1,0.3,1.3,0.5L88.3,11c-0.4-0.2-0.8-0.4-1.3-0.5
			c-0.5-0.1-0.9-0.2-1.4-0.2c-0.6,0-1,0.1-1.3,0.4c-0.3,0.2-0.5,0.6-0.5,1c0,0.3,0.1,0.5,0.2,0.7c0.1,0.2,0.3,0.4,0.5,0.5
			c0.2,0.1,0.4,0.3,0.7,0.4c0.3,0.1,0.6,0.2,0.9,0.4c0.6,0.2,1,0.4,1.5,0.6c0.4,0.2,0.8,0.5,1.1,0.7c0.3,0.3,0.5,0.6,0.7,1
			c0.2,0.4,0.2,0.9,0.2,1.4c0,1.1-0.4,1.9-1.1,2.5c-0.8,0.6-1.8,0.9-3.3,0.9c-0.5,0-0.9,0-1.3-0.1c-0.4-0.1-0.8-0.1-1.1-0.2
			c-0.3-0.1-0.6-0.2-0.8-0.3c-0.2-0.1-0.4-0.2-0.5-0.3l0.6-1.7c0.3,0.2,0.7,0.3,1.2,0.5C83.7,18.9,84.3,19,85.1,19z"/>
		<path d="M99.2,20.5c-0.2-0.5-0.3-0.9-0.5-1.4c-0.2-0.5-0.3-0.9-0.5-1.4h-5c-0.2,0.5-0.3,0.9-0.5,1.4s-0.3,0.9-0.5,1.4h-2.2
			c0.4-1.3,0.9-2.4,1.3-3.5c0.4-1.1,0.8-2.1,1.2-3c0.4-0.9,0.8-1.9,1.1-2.7c0.4-0.9,0.8-1.7,1.2-2.5h2c0.4,0.8,0.8,1.7,1.2,2.5
			c0.4,0.9,0.7,1.8,1.1,2.7s0.8,2,1.2,3c0.4,1.1,0.8,2.2,1.3,3.5H99.2z M95.7,11.1c-0.3,0.6-0.6,1.3-0.9,2.2c-0.3,0.9-0.7,1.8-1,2.8
			h3.9c-0.4-1-0.7-1.9-1.1-2.8C96.3,12.4,96,11.7,95.7,11.1z"/>
		<path d="M112.9,14.7c0,1-0.2,1.9-0.5,2.7s-0.8,1.4-1.3,1.9c-0.6,0.5-1.3,0.9-2.1,1.1c-0.8,0.2-1.7,0.4-2.7,0.4c-0.5,0-1,0-1.6-0.1
			c-0.6,0-1.2-0.1-1.7-0.2V9c0.5-0.1,1.1-0.2,1.7-0.2c0.6,0,1.2-0.1,1.6-0.1c1,0,1.9,0.1,2.7,0.3c0.8,0.2,1.5,0.6,2.1,1.1
			c0.6,0.5,1,1.1,1.3,1.9S112.9,13.6,112.9,14.7z M105.1,18.8c0.1,0,0.3,0,0.5,0s0.5,0,0.8,0c1.4,0,2.5-0.4,3.2-1.1
			c0.7-0.7,1.1-1.7,1.1-3.1c0-1.3-0.3-2.4-1-3.1c-0.7-0.7-1.8-1.1-3.2-1.1c-0.6,0-1.1,0-1.4,0.1V18.8z"/>
		<path d="M115.2,20.5V8.8h7.5v1.8h-5.4v2.9h4.8v1.8h-4.8v3.4h5.8v1.8H115.2z"/>
		<path d="M132.4,8.8h2.1v11.7h-2.1v-5.2h-5.1v5.2h-2.1V8.8h2.1v4.7h5.1V8.8z"/>
		<path d="M143.9,8.8c0.2,0.4,0.5,1,0.8,1.6c0.3,0.6,0.6,1.3,0.9,2c0.3,0.7,0.6,1.4,0.9,2.1s0.6,1.4,0.9,2c0.3-0.6,0.5-1.2,0.8-2
			s0.6-1.4,0.9-2.1c0.3-0.7,0.6-1.3,0.9-2c0.3-0.6,0.6-1.1,0.8-1.6h1.9c0.1,0.9,0.2,1.8,0.3,2.7s0.2,2,0.2,3c0.1,1,0.1,2,0.2,3
			c0.1,1,0.1,2,0.2,3h-2.1c0-1.4-0.1-2.8-0.2-4.2c-0.1-1.4-0.2-2.8-0.3-4.2c-0.1,0.3-0.3,0.6-0.4,0.9s-0.4,0.8-0.5,1.2
			c-0.2,0.4-0.4,0.9-0.6,1.3c-0.2,0.5-0.4,0.9-0.6,1.3s-0.4,0.8-0.5,1.2c-0.2,0.4-0.3,0.7-0.4,0.9h-1.6c-0.1-0.3-0.2-0.6-0.4-0.9
			c-0.2-0.4-0.3-0.8-0.5-1.2c-0.2-0.4-0.4-0.9-0.6-1.3c-0.2-0.5-0.4-0.9-0.6-1.3c-0.2-0.4-0.4-0.8-0.5-1.2c-0.2-0.4-0.3-0.7-0.4-0.9
			c-0.1,1.4-0.2,2.8-0.3,4.2c-0.1,1.4-0.1,2.9-0.2,4.2H141c0-1,0.1-2,0.2-3c0.1-1,0.1-2.1,0.2-3.1c0.1-1,0.2-2,0.2-3
			s0.2-1.8,0.3-2.7H143.9z"/>
		<path d="M167.2,14.7c0,1-0.2,1.9-0.4,2.7c-0.3,0.8-0.7,1.4-1.2,1.9c-0.5,0.5-1.1,0.9-1.8,1.2c-0.7,0.3-1.4,0.4-2.2,0.4
			c-0.8,0-1.5-0.1-2.2-0.4c-0.7-0.3-1.3-0.6-1.8-1.2c-0.5-0.5-0.9-1.2-1.2-1.9c-0.3-0.8-0.5-1.7-0.5-2.7s0.2-1.9,0.5-2.7
			c0.3-0.8,0.7-1.4,1.2-1.9c0.5-0.5,1.1-0.9,1.8-1.2c0.7-0.3,1.4-0.4,2.2-0.4s1.5,0.1,2.2,0.4s1.3,0.6,1.8,1.2
			c0.5,0.5,0.9,1.2,1.2,1.9C167,12.8,167.2,13.7,167.2,14.7z M158,14.7c0,0.6,0.1,1.2,0.2,1.8s0.4,1,0.7,1.3
			c0.3,0.4,0.7,0.7,1.1,0.9c0.4,0.2,0.9,0.3,1.5,0.3c0.5,0,1-0.1,1.4-0.3s0.8-0.5,1.1-0.9c0.3-0.4,0.5-0.8,0.7-1.3s0.2-1.1,0.2-1.8
			s-0.1-1.2-0.2-1.8s-0.4-1-0.7-1.3c-0.3-0.4-0.7-0.7-1.1-0.9s-0.9-0.3-1.4-0.3c-0.5,0-1,0.1-1.5,0.3c-0.4,0.2-0.8,0.5-1.1,0.9
			c-0.3,0.4-0.5,0.8-0.7,1.3C158.1,13.4,158,14,158,14.7z"/>
		<path d="M172.2,19c0.8,0,1.3-0.1,1.7-0.4s0.5-0.6,0.5-1.1c0-0.3-0.1-0.5-0.2-0.7c-0.1-0.2-0.3-0.4-0.5-0.6
			c-0.2-0.2-0.5-0.3-0.8-0.5c-0.3-0.1-0.7-0.3-1.1-0.4c-0.4-0.1-0.8-0.3-1.2-0.5c-0.4-0.2-0.7-0.4-1-0.7s-0.5-0.6-0.7-0.9
			c-0.2-0.4-0.3-0.8-0.3-1.3c0-1.1,0.4-1.9,1.1-2.5s1.7-0.9,3-0.9c0.7,0,1.4,0.1,2,0.2c0.6,0.2,1,0.3,1.3,0.5l-0.7,1.7
			c-0.4-0.2-0.8-0.4-1.3-0.5c-0.5-0.1-0.9-0.2-1.4-0.2c-0.6,0-1,0.1-1.3,0.4c-0.3,0.2-0.5,0.6-0.5,1c0,0.3,0.1,0.5,0.2,0.7
			c0.1,0.2,0.3,0.4,0.5,0.5c0.2,0.1,0.4,0.3,0.7,0.4c0.3,0.1,0.6,0.2,0.9,0.4c0.6,0.2,1,0.4,1.5,0.6c0.4,0.2,0.8,0.5,1.1,0.7
			c0.3,0.3,0.5,0.6,0.7,1c0.2,0.4,0.2,0.9,0.2,1.4c0,1.1-0.4,1.9-1.1,2.5c-0.8,0.6-1.8,0.9-3.3,0.9c-0.5,0-0.9,0-1.3-0.1
			c-0.4-0.1-0.8-0.1-1.1-0.2c-0.3-0.1-0.6-0.2-0.8-0.3c-0.2-0.1-0.4-0.2-0.5-0.3l0.6-1.7c0.3,0.2,0.7,0.3,1.2,0.5
			C170.8,18.9,171.5,19,172.2,19z"/>
		<path d="M178.5,20.5V8.8h7.5v1.8h-5.4v2.9h4.8v1.8h-4.8v3.4h5.8v1.8H178.5z"/>
		<path d="M191.3,19c0.8,0,1.3-0.1,1.7-0.4s0.5-0.6,0.5-1.1c0-0.3-0.1-0.5-0.2-0.7c-0.1-0.2-0.3-0.4-0.5-0.6
			c-0.2-0.2-0.5-0.3-0.8-0.5c-0.3-0.1-0.7-0.3-1.1-0.4c-0.4-0.1-0.8-0.3-1.2-0.5c-0.4-0.2-0.7-0.4-1-0.7s-0.5-0.6-0.7-0.9
			c-0.2-0.4-0.3-0.8-0.3-1.3c0-1.1,0.4-1.9,1.1-2.5s1.7-0.9,3-0.9c0.7,0,1.4,0.1,2,0.2c0.6,0.2,1,0.3,1.3,0.5l-0.7,1.7
			c-0.4-0.2-0.8-0.4-1.3-0.5c-0.5-0.1-0.9-0.2-1.4-0.2c-0.6,0-1,0.1-1.3,0.4c-0.3,0.2-0.5,0.6-0.5,1c0,0.3,0.1,0.5,0.2,0.7
			c0.1,0.2,0.3,0.4,0.5,0.5c0.2,0.1,0.4,0.3,0.7,0.4c0.3,0.1,0.6,0.2,0.9,0.4c0.6,0.2,1,0.4,1.5,0.6c0.4,0.2,0.8,0.5,1.1,0.7
			c0.3,0.3,0.5,0.6,0.7,1c0.2,0.4,0.2,0.9,0.2,1.4c0,1.1-0.4,1.9-1.1,2.5c-0.8,0.6-1.8,0.9-3.3,0.9c-0.5,0-0.9,0-1.3-0.1
			c-0.4-0.1-0.8-0.1-1.1-0.2c-0.3-0.1-0.6-0.2-0.8-0.3c-0.2-0.1-0.4-0.2-0.5-0.3l0.6-1.7c0.3,0.2,0.7,0.3,1.2,0.5
			C189.9,18.9,190.5,19,191.3,19z"/>
	</g>
</g>
<use xlink:href="#New_Symbol_6"  width="99" height="99" x="-49.5" y="-49.5" transform="matrix(0.2071 0 0 -0.2071 11.1875 15.25)" style="overflow:visible;"/>
<g>
</g>
<g>
</g>
<g>
</g>
<g>
</g>
<g>
</g>
<g>
</g>
<g>
</g>
<g>
</g>
<g>
</g>
<g>
</g>
<g>
</g>
<g>
</g>
<g>
</g>
<g>
</g>
<g>
</g>
<g>
</g>
<g>
</g>
<g>
</g>
<g>
</g>
<g>
</g>
<g>
</g>
</svg>
