<?xml version="1.0" encoding="utf-8"?>
<!-- Generator: Adobe Illustrator 19.1.0, SVG Export Plug-In . SVG Version: 6.00 Build 0)  -->
<svg version="1.1" id="Layer_1" xmlns="http://www.w3.org/2000/svg" xmlns:xlink="http://www.w3.org/1999/xlink" x="0px" y="0px"
	 viewBox="0 0 300 300" style="enable-background:new 0 0 300 300;" xml:space="preserve">
<style type="text/css">
	.st0{fill:#E6E6E6;stroke:#1A1A1A;stroke-width:2;stroke-miterlimit:10;}
	.st1{fill:#333333;}
	.st2{fill:#B3B3B3;}
	.st3{fill:#808080;}
	.st4{fill:#999999;}
	.st5{fill:#CCCCCC;}
	.st6{fill:#4D4D4D;}
	.st7{fill:#E6E6E6;}
	.st8{fill:none;stroke:#000000;stroke-width:8;stroke-miterlimit:10;}
	.st9{fill:#666666;}
	.st10{fill:#E6E6E6;stroke:#B3B3B3;stroke-width:2;stroke-miterlimit:10;}
	.st11{fill:#CCCCCC;stroke:#999999;stroke-width:2;stroke-miterlimit:10;}
	.st12{fill:#E6E6E6;fill-opacity:0.52;stroke:#000000;stroke-width:3;stroke-miterlimit:10;}
	.st13{fill:#1A1A1A;}
	.st14{opacity:0.8;fill:#1A1A1A;}
	.st15{fill:none;stroke:#000000;stroke-width:5;stroke-miterlimit:10;}
	.st16{fill:none;stroke:#E6E6E6;stroke-width:0.75;stroke-miterlimit:10;}
	.st17{fill:none;stroke:#E6E6E6;stroke-miterlimit:10;}
	.st18{fill:none;stroke:#000000;stroke-width:13;stroke-miterlimit:10;}
	.st19{fill:none;stroke:#666666;stroke-width:2;stroke-miterlimit:10;}
	.st20{fill:#CCCCCC;stroke:#4D4D4D;stroke-width:3;stroke-miterlimit:10;}
</style>
<circle class="st0" cx="252.2" cy="69.3" r="12.9"/>
<g>
	<ellipse class="st1" cx="158.7" cy="76.3" rx="13.2" ry="9.7"/>
	<polygon class="st1" points="148.3,70.3 154.6,65.7 154.6,57.8 163.6,57.8 163.6,66.4 169.6,71 	"/>
	<ellipse class="st2" cx="166.8" cy="48.1" rx="5.3" ry="4.8"/>
	<ellipse class="st3" cx="158.8" cy="43" rx="5.3" ry="4.8"/>
	<ellipse class="st4" cx="150.8" cy="48.1" rx="5.3" ry="4.8"/>
	<ellipse class="st2" cx="153" cy="56.9" rx="6.8" ry="6.3"/>
	<ellipse class="st3" cx="159.6" cy="59.7" rx="5.3" ry="4.8"/>
	<ellipse class="st4" cx="166.5" cy="55.7" rx="6.5" ry="5.8"/>
	<ellipse class="st5" cx="158.8" cy="51.9" rx="6.8" ry="6.3"/>
</g>
<rect x="189.4" y="57.7" class="st3" width="9.2" height="26.3"/>
<rect x="198.6" y="57.7" class="st2" width="2.8" height="26.3"/>
<rect x="201.4" y="62.1" class="st6" width="5.7" height="21.9"/>
<polygon class="st3" points="201.6,67.3 205.2,83.8 201.6,83.8 "/>
<rect x="207.1" y="59.3" class="st5" width="3.9" height="24.7"/>
<rect x="211" y="57.7" class="st3" width="4.8" height="26.3"/>
<rect x="214.9" y="57.7" class="st2" width="1.6" height="26.3"/>
<rect x="216.6" y="57.7" class="st5" width="9.4" height="26.3"/>
<polygon class="st7" points="216.6,62.1 219.2,83.8 216.6,83.8 "/>
<g>
	<polyline class="st8" points="21.6,300.8 21.6,200.8 275.6,200.8 275.6,300.8 	"/>
	<line class="st8" x1="21.4" y1="205.5" x2="275.8" y2="205.7"/>
</g>
<rect x="222.4" y="32" class="st6" width="43.6" height="10.2"/>
<rect x="226.2" y="22.2" class="st9" width="35.6" height="9.8"/>
<path class="st10" d="M257.6,21.5h-22.9c-2.9,0-5.3-2.2-5.3-4.8v-0.5c0-2.6,2.4-4.8,5.3-4.8h22.9"/>
<g>
	<rect x="31.9" y="239.1" width="62.9" height="60.3"/>
	<rect x="38.9" y="245.4" class="st11" width="49.7" height="21"/>
	<g>
		<g>
			<path d="M52.1,252.5c8.2,0,16.5,0,24.7,0c1.9,0,1.9-3,0-3c-8.2,0-16.5,0-24.7,0C50.1,249.5,50.1,252.5,52.1,252.5L52.1,252.5z"/>
		</g>
	</g>
	<rect x="38.9" y="274.1" class="st11" width="49.7" height="21"/>
	<g>
		<g>
			<path d="M52.1,281.1c8.2,0,16.5,0,24.7,0c1.9,0,1.9-3,0-3c-8.2,0-16.5,0-24.7,0C50.1,278.1,50.1,281.1,52.1,281.1L52.1,281.1z"/>
		</g>
	</g>
</g>
<path class="st12" d="M191.3,190.2h-64c-2.3,0-4.1-1.8-4.1-4.1v-33.3c0-2.3,1.8-4.1,4.1-4.1h64c2.3,0,4.1,1.8,4.1,4.1v33.3
	C195.4,188.3,193.5,190.2,191.3,190.2z"/>
<polygon class="st9" points="114.1,192.8 115.6,196.8 201.3,196.8 204.2,192.8 "/>
<g id="New_Symbol">
	<g>
		<path class="st13" d="M126.1,279.6c3.3,0,6.3-1.5,8-3.9c1.7,2.9,2.8,6.6,2.8,10.8c0,4.4-1.2,8.4-3.1,11.4h2.3c1.4,0,2.5,0,2.5,3
			h-13"/>
		<path class="st14" d="M126.6,300.8h-12.3c0-3,1.1-3,2.5-3h2c-2-3-3.2-6.9-3.2-11.3c0-4.5,1.2-8.5,3.2-11.4
			c1.6,2.8,4.6,4.6,8.2,4.6"/>
		<path d="M111,268.2L111,268.2c1.5,1,3.5,0.6,4.5-0.9l8.6-12.6c1-1.5,0.6-3.5-0.9-4.5l0,0c-1.5-1-3.5-0.6-4.5,0.9l-8.6,12.6
			C109.2,265.2,109.6,267.2,111,268.2z"/>
		<path d="M139.2,275.8L139.2,275.8c1.8-0.1,3.2-1.7,3-3.5l-1.1-15.2c-0.1-1.8-1.7-3.2-3.5-3h0c-1.8,0.1-3.2,1.7-3,3.5l1.1,15.2
			C135.9,274.5,137.4,275.9,139.2,275.8z"/>
		<g>
			<path class="st13" d="M145.5,281.7c0,0,0.1,0.4,0.2,1.1c0,0.2,0,0.4,0.1,0.6c0,0.2,0,0.4,0,0.7c0,0.5-0.1,1.1-0.2,1.6
				c-0.1,0.3-0.2,0.6-0.2,0.9c-0.1,0.3-0.2,0.6-0.4,0.9c-0.3,0.7-0.7,1.3-1.1,1.9c-0.4,0.6-0.9,1.2-1.5,1.8
				c-0.5,0.6-1.2,1.1-1.8,1.5c-0.7,0.4-1.3,0.9-2,1.2c-0.7,0.4-1.4,0.6-2.1,0.9c-0.7,0.2-1.4,0.4-2,0.5c-0.7,0.1-1.3,0.2-1.9,0.2
				c-1.2,0-2.1-0.1-2.8-0.3c-0.7-0.1-1.1-0.3-1.1-0.3s0.3-0.3,0.8-0.7c0.3-0.2,0.6-0.4,1-0.7c0.4-0.2,0.8-0.5,1.2-0.8
				c0.4-0.3,0.9-0.6,1.4-0.9c0.5-0.3,1-0.6,1.5-1c0.5-0.4,1-0.7,1.5-1c0.5-0.3,1-0.7,1.5-1.1c0.5-0.4,1-0.7,1.5-1.1
				c0.5-0.4,0.9-0.7,1.4-1.1c0.4-0.4,0.9-0.7,1.3-1.1c0.4-0.4,0.8-0.7,1.2-1.1c0.4-0.3,0.7-0.7,1-1c0.3-0.3,0.6-0.6,0.8-0.8
				C145.2,282,145.5,281.7,145.5,281.7z"/>
		</g>
		<path class="st5" d="M134.3,276c-1.8,2.4-4.7,3.9-7.9,3.9c-3.6,0-5.8-1.9-7.4-4.6c2-3,3.8-4.8,6.9-4.8
			C129.2,270.5,132.2,272.6,134.3,276z"/>
		<path class="st1" d="M123.6,276.8c-4.3-1.5-8.9-6.3-7.4-10.6l5-12.3c0.8-2.2,4.7-3.4,6.9-2.6l3.5,1.2"/>
		<path class="st13" d="M131.5,252.4l4,1.4c2.4,0.8,4.4,3.5,3.6,5.8l-2.7,12c-1.5,4.3-8.5,6.7-12.8,5.2h0"/>
	</g>
</g>
<path d="M249.6,257.8v4.6c0,1.1-0.7,1.4-1.8,1.4h-0.2v-6h-11v6h-0.1c-1.1,0-1.9-0.3-1.9-1.4v-4.6c0-1.1,0.8-2.1,1.9-2.1h11.3
	C248.9,255.8,249.6,256.7,249.6,257.8z"/>
<path class="st1" d="M262.5,299.7h-40.4c-1.9,0-3.5-1.6-3.5-3.5v-30.9c0-1.9,1.6-3.5,3.5-3.5h40.4c1.9,0,3.5,1.6,3.5,3.5v30.9
	C266,298.2,264.4,299.7,262.5,299.7z"/>
<path class="st6" d="M266.2,281.9l-0.1,1.2c0,1.9-2,3.4-4.3,3.3l-38.9-0.2c-2.3,0-4.3-1.5-4.3-3.4v-2.4c0-5.1,0-16.6,0-16.6
	c0-1.3,1-3.2,2.3-3.2h43c1.2,0,1.7,1.9,1.7,3.2v10.8"/>
<g>
	<g>
		<path class="st7" d="M237.4,281.8c3.1,0,6.2,0,9.2,0c1.5,0,1.5-2.4,0-2.4c-3.1,0-6.2,0-9.2,0C235.8,279.4,235.8,281.8,237.4,281.8
			L237.4,281.8z"/>
	</g>
</g>
<line class="st15" x1="229.1" y1="299.7" x2="228.8" y2="260.9"/>
<line class="st15" x1="257.1" y1="299.7" x2="256.8" y2="260.9"/>
<g>
	<path class="st16" d="M258.1,289.5h-2.2c-1.1,0-2-0.9-2-2v-1.5c0-1.1,0.9-2,2-2h2.2c1.1,0,2,0.9,2,2v1.5
		C260.1,288.6,259.2,289.5,258.1,289.5z"/>
	<line class="st17" x1="257.1" y1="286.8" x2="257.1" y2="289.8"/>
</g>
<g>
	<path class="st16" d="M230.1,289.5h-2.2c-1.1,0-2-0.9-2-2v-1.5c0-1.1,0.9-2,2-2h2.2c1.1,0,2,0.9,2,2v1.5
		C232.1,288.6,231.2,289.5,230.1,289.5z"/>
	<line class="st17" x1="229.1" y1="286.8" x2="229.1" y2="289.8"/>
</g>
<g>
	<polyline class="st6" points="257.6,196.8 250.4,196.8 248.2,170.8 257.6,170.8 	"/>
	<polyline class="st1" points="257.6,170.8 266.4,170.8 264.9,196.8 257.6,196.8 	"/>
</g>
<g id="New_Symbol_1">
	<g>
		<polygon class="st7" points="260.6,164.8 262.8,160.1 264.6,164.8 		"/>
		<g>
			<polyline class="st5" points="264.6,164.8 264.6,170.8 260.6,170.8 260.6,164.8 			"/>
			<rect x="262.6" y="164.8" class="st2" width="2" height="6"/>
		</g>
		<polygon points="262.8,160.1 262.3,161.2 263.2,161.2 		"/>
	</g>
</g>
<line class="st18" x1="137.6" y1="90.3" x2="279.6" y2="90.3"/>
<line class="st18" x1="181.6" y1="46.3" x2="279.6" y2="46.3"/>
<g>
	<g>
		<g>
			<path class="st9" d="M48.4,197.3c9.4,0,18.9,0,28.3,0c1.9,0,1.9-3,0-3c-9.4,0-18.9,0-28.3,0C46.5,194.3,46.5,197.3,48.4,197.3
				L48.4,197.3z"/>
		</g>
	</g>
	<path class="st4" d="M49.6,194.6c0-5.2,5.2-9.4,11.6-9.4s11.6,4.2,11.6,9.4"/>
	<path class="st3" d="M52.5,194.6c0-5.2,5.2-9.4,11.6-9.4c6.4,0,11.6,4.2,11.6,9.4"/>
	<polyline class="st19" points="64.2,185.9 48.4,157.1 66.3,126.5 	"/>
	<polyline class="st19" points="59.6,186.4 43.6,156.4 62.6,122.9 	"/>
	<path class="st9" d="M77.9,128.6c-1,2.1-3.6,3-5.7,1.9l-9.7-4.8c-2.1-1-3-3.6-1.9-5.7l0,0"/>
	<path class="st9" d="M60.5,120c1-2.1,3.6-3,5.7-1.9l9.7,4.8c2.1,1,3,3.6,1.9,5.7v0"/>
	<path class="st4" d="M75.5,146.1c-6.5-3.3-9-11.5-5.5-18.4c3.5-6.9,11.5-9.8,18.1-6.5"/>
	<ellipse class="st5" cx="81.9" cy="131.9" rx="5.3" ry="5.7"/>
	<path class="st9" d="M76.3,144.7c-6.5-3.3-9-11.5-5.5-18.4c3.5-6.9,11.5-9.8,18.1-6.5"/>
	<circle class="st20" cx="48" cy="157.3" r="5.9"/>
</g>
<path d="M258.8,69.3h-6.1v-7.2c0-0.6-0.5-1.1-1.1-1.1c-0.6,0-1.1,0.5-1.1,1.1v9.2c0,0.6,0.5,1.1,1.1,1.1c0.1,0,0.3,0,0.4-0.1
	c0,0,0.1,0,0.1,0h6.7c0.8,0,1.5-0.7,1.5-1.5C260.3,70,259.6,69.3,258.8,69.3z"/>
<g>
</g>
<g>
</g>
<g>
</g>
<g>
</g>
<g>
</g>
<g>
</g>
<g>
</g>
<g>
</g>
<g>
</g>
<g>
</g>
<g>
</g>
<g>
</g>
<g>
</g>
<g>
</g>
<g>
</g>
<g>
</g>
<g>
</g>
</svg>
