<?xml version="1.0" encoding="utf-8"?>
<!-- Generator: Adobe Illustrator 19.1.0, SVG Export Plug-In . SVG Version: 6.00 Build 0)  -->
<svg version="1.1" id="Layer_1" xmlns="http://www.w3.org/2000/svg" xmlns:xlink="http://www.w3.org/1999/xlink" x="0px" y="0px"
	 viewBox="0 0 30 30" style="enable-background:new 0 0 30 30;" xml:space="preserve">
<g>
	<path d="M25.7,9.5c0,0.2,0,0.5,0,0.7c0,7.3-5.5,15.7-15.7,15.7c-3.1,0-6-0.9-8.5-2.5c0.4,0.1,0.9,0.1,1.3,0.1
		c2.6,0,4.9-0.9,6.8-2.4c-2.4-0.1-4.4-1.6-5.1-3.8c0.3,0.1,0.7,0.1,1,0.1c0.5,0,1-0.1,1.4-0.2c-2.5-0.5-4.4-2.7-4.4-5.4
		c0,0,0-0.1,0-0.1c0.7,0.4,1.6,0.7,2.5,0.7c-1.5-1-2.5-2.7-2.5-4.6c0-1,0.3-2,0.8-2.8c2.7,3.3,6.8,5.5,11.4,5.8
		c-0.1-0.4-0.1-0.8-0.1-1.3c0-3,2.5-5.5,5.5-5.5c1.6,0,3,0.7,4,1.7c1.2-0.2,2.4-0.7,3.5-1.3c-0.4,1.3-1.3,2.4-2.4,3
		c1.1-0.1,2.2-0.4,3.2-0.9C27.7,7.8,26.7,8.7,25.7,9.5z"/>
</g>
</svg>
