<?xml version="1.0" encoding="utf-8"?>
<!-- Generator: Adobe Illustrator 19.1.0, SVG Export Plug-In . SVG Version: 6.00 Build 0)  -->
<svg version="1.1" id="Layer_1" xmlns="http://www.w3.org/2000/svg" xmlns:xlink="http://www.w3.org/1999/xlink" x="0px" y="0px"
	 viewBox="0 0 30 30" style="enable-background:new 0 0 30 30;" xml:space="preserve">
<g>
	<path d="M26.4,10.8c-2.4,1.7-4.9,3.4-7.3,5.1c-1,0.7-2.7,2.2-4,2.2h0h0c-1.3,0-3-1.4-4-2.2c-2.4-1.7-4.9-3.4-7.3-5.1
		c-1.1-0.8-2.7-2.5-2.7-4c0-1.5,0.8-2.9,2.5-2.9h23.1c1.4,0,2.5,1.1,2.5,2.5C29.1,8.2,27.8,9.8,26.4,10.8z M29.1,23.5
		c0,1.4-1.1,2.5-2.5,2.5H3.4c-1.4,0-2.5-1.1-2.5-2.5V11.1c0.5,0.5,1,1,1.6,1.4c2.6,1.8,5.2,3.5,7.8,5.4c1.3,1,3,2.2,4.7,2.2h0h0
		c1.7,0,3.3-1.2,4.7-2.2c2.6-1.9,5.2-3.6,7.8-5.4c0.6-0.4,1.1-0.8,1.6-1.4V23.5z"/>
</g>
</svg>
