<?xml version="1.0" encoding="utf-8"?>
<!-- Generator: Adobe Illustrator 19.1.0, SVG Export Plug-In . SVG Version: 6.00 Build 0)  -->
<svg version="1.1" id="Layer_1" xmlns="http://www.w3.org/2000/svg" xmlns:xlink="http://www.w3.org/1999/xlink" x="0px" y="0px"
	 viewBox="0 0 30 30" style="enable-background:new 0 0 30 30;" xml:space="preserve">
<g>
	<path d="M6.3,9.1L6.3,9.1C4.6,9.1,3.5,8,3.5,6.6C3.5,5.1,4.6,4,6.3,4C8,4,9,5.1,9.1,6.6C9.1,8,8,9.1,6.3,9.1z M8.7,26H3.8V11.2h4.9
		V26z M26.5,26h-4.9V18c0-2-0.7-3.3-2.5-3.3c-1.4,0-2.2,0.9-2.5,1.8c-0.1,0.3-0.2,0.8-0.2,1.2V26h-4.9c0.1-13.4,0-14.8,0-14.8h4.9
		v2.1h0c0.6-1,1.8-2.5,4.5-2.5c3.2,0,5.7,2.1,5.7,6.7V26z"/>
</g>
</svg>
