<?xml version="1.0" encoding="utf-8"?>
<!-- Generator: Adobe Illustrator 19.1.0, SVG Export Plug-In . SVG Version: 6.00 Build 0)  -->
<svg version="1.1" id="Layer_1" xmlns="http://www.w3.org/2000/svg" xmlns:xlink="http://www.w3.org/1999/xlink" x="0px" y="0px"
	 viewBox="0 0 200 200" style="enable-background:new 0 0 200 200;" xml:space="preserve">
<style type="text/css">
	.st0{fill:none;stroke:#000001;stroke-width:2;stroke-miterlimit:10;}
</style>
<g>
	<path class="st0" d="M195.4,143.3v9.4c0,5.2-7.1,9.4-15.7,9.4H23c-8.6,0-15.7-4.2-15.7-9.4v-9.4H23h156.8H195.4z M32.4,121.3v-69
		c0-8.6,7.1-15.7,15.7-15.7h106.6c8.6,0,15.7,7.1,15.7,15.7v69c0,8.6-7.1,15.7-15.7,15.7H48.1C39.5,137,32.4,129.9,32.4,121.3z
		 M45,121.3c0,1.7,1.5,3.1,3.1,3.1h106.6c1.7,0,3.1-1.5,3.1-3.1v-69c0-1.7-1.5-3.1-3.1-3.1H48.1c-1.7,0-3.1,1.5-3.1,3.1V121.3z
		 M110.8,152.1c0-0.9-0.7-1.6-1.6-1.6H93.6c-0.9,0-1.6,0.7-1.6,1.6s0.7,1.6,1.6,1.6h15.7C110.1,153.7,110.8,153,110.8,152.1z"/>
</g>
<g>
	<polyline class="st0" points="92,74.3 79.3,86.3 92,97 	"/>
	<polyline class="st0" points="112,75 124,87.7 110.7,97.6 	"/>
	<line class="st0" x1="108.3" y1="69.3" x2="95.4" y2="104"/>
</g>
</svg>
