<?xml version="1.0" encoding="utf-8"?>
<!-- Generator: Adobe Illustrator 19.1.0, SVG Export Plug-In . SVG Version: 6.00 Build 0)  -->
<svg version="1.1" id="Layer_1" xmlns="http://www.w3.org/2000/svg" xmlns:xlink="http://www.w3.org/1999/xlink" x="0px" y="0px"
	 viewBox="0 0 200 200" style="enable-background:new 0 0 200 200;" xml:space="preserve">
<style type="text/css">
	.st0{fill:none;stroke:#000001;stroke-width:2;stroke-miterlimit:10;}
</style>
<g>
	<path class="st0" d="M159.4,118.7l-40.5,40.5c-2,1.9-4.7,3-7.5,3s-5.5-1.2-7.4-3l-58.9-59c-4.2-4.1-7.5-12.1-7.5-18V48
		c0-5.8,4.8-10.5,10.5-10.5h34.3c5.9,0,13.8,3.3,18,7.5l58.9,58.8c1.9,2,3,4.7,3,7.5S161.3,116.8,159.4,118.7z M63.9,53.2
		c-5.9,0-10.5,4.7-10.5,10.5s4.7,10.5,10.5,10.5s10.5-4.7,10.5-10.5S69.8,53.2,63.9,53.2z"/>
</g>
</svg>
